<?xml version="1.0" encoding="UTF-8"?>
<svg xmlns="http://www.w3.org/2000/svg" xmlns:xlink="http://www.w3.org/1999/xlink" viewBox="0 0 256 256" width="256px" height="256px">
<g id="surface89789591">
<path style=" stroke:none;fill-rule:evenodd;fill:rgb(100%,100%,100%);fill-opacity:1;" d="M 128 32 C 74.96875 32 32 74.96875 32 128 C 32 170.40625 59.5 206.40625 97.65625 219.09375 C 102.46875 219.96875 104.21875 217.03125 104.21875 214.46875 C 104.21875 212.1875 104.125 206.15625 104.09375 198.15625 C 77.375 203.9375 71.75 185.28125 71.75 185.28125 C 67.375 174.1875 61.09375 171.21875 61.09375 171.21875 C 52.375 165.28125 61.75 165.40625 61.75 165.40625 C 71.375 166.09375 76.4375 175.28125 76.4375 175.28125 C 85 189.96875 98.90625 185.71875 104.375 183.28125 C 105.25 177.0625 107.75 172.84375 110.46875 170.4375 C 89.15625 168.03125 66.75 159.78125 66.75 123 C 66.75 112.5 70.5 103.9375 76.625 97.21875 C 75.65625 94.8125 72.34375 85.03125 77.5625 71.8125 C 77.5625 71.8125 85.625 69.25 103.96875 81.65625 C 111.625 79.53125 119.84375 78.46875 128 78.4375 C 136.15625 78.46875 144.375 79.53125 152.03125 81.65625 C 170.375 69.25 178.40625 71.8125 178.40625 71.8125 C 183.65625 85.03125 180.375 94.8125 179.375 97.21875 C 185.53125 103.9375 189.21875 112.5 189.21875 123 C 189.21875 159.875 166.78125 167.96875 145.40625 170.375 C 148.84375 173.3125 151.90625 179.1875 151.90625 188.125 C 151.90625 200.96875 151.8125 211.3125 151.8125 214.46875 C 151.8125 217.03125 153.53125 220.03125 158.40625 219.09375 C 196.53125 206.375 224 170.40625 224 128 C 224 74.96875 181.03125 32 128 32 Z M 128 32 "/>
</g>
</svg>
