<?xml version="1.0" encoding="UTF-8"?>
<svg xmlns="http://www.w3.org/2000/svg" xmlns:xlink="http://www.w3.org/1999/xlink" viewBox="0 0 480 480" width="480px" height="480px">
<g id="surface89776246">
<path style=" stroke:none;fill-rule:nonzero;fill:rgb(100%,100%,100%);fill-opacity:1;" d="M 240 48 C 133.96875 48 48 133.96875 48 240 C 48 346.03125 133.96875 432 240 432 C 346.03125 432 432 346.03125 432 240 C 432 133.96875 346.03125 48 240 48 Z M 167.9375 134.449219 C 181.40625 134.449219 190.382812 143.425781 190.382812 155.390625 C 190.382812 167.359375 181.40625 176.335938 166.449219 176.335938 C 152.976562 176.351562 144 167.359375 144 155.390625 C 144 143.425781 152.976562 134.449219 167.9375 134.449219 Z M 192 320 L 144 320 L 144 192 L 192 192 Z M 352 320 L 306.816406 320 L 306.816406 250.046875 C 306.816406 230.703125 294.769531 226.238281 290.257812 226.238281 C 285.742188 226.238281 270.671875 229.214844 270.671875 250.046875 C 270.671875 253.023438 270.671875 320 270.671875 320 L 224 320 L 224 192 L 270.6875 192 L 270.6875 209.855469 C 276.703125 199.441406 288.75 192 311.34375 192 C 333.9375 192 352 209.855469 352 250.046875 Z M 352 320 "/>
</g>
</svg>
